#!OML:ASF F:\VICON\USERDATA\INSTALL\rory3\rory3.ASF
:FULLY-SPECIFIED
:DEGREES
54
root 0.48463971673992423 17.741630100927825 11.842956573628358 -1.6973728990709862 -4.942356100803792 -5.296091848319685
lfemur -25.528530156769012 -4.24570263019372 -15.15406478141881
ltibia 18.721974517631903
lfoot -1.7115502380583854 -0.11223017982194505
ltoes -2.1566299501405473
rfemur 15.127170961114334 5.237992606981358 30.15341917588766
rtibia 38.89411777078267
rfoot -2.172978904969143 2.7682002506675367
rtoes -2.814449761668149
lowerback 8.659505370284936 3.383867999774156 6.070988017635372
upperback 0.06472225731594539 5.159360794471647 1.048750104163899
thorax -4.627342539110568 2.434290043949196 -2.7031223970147367
lowerneck -16.799814814424106 -3.4062566232441354 -1.3781738690423748
upperneck 20.802197492939616 -4.565290223473848 1.3452156462249067
head 9.393089735059231 -2.113394203611124 0.06706872429138562
lclavicle -1.9083763867148553e-15 9.477623833769457e-16
lhumerus -41.15443105749527 9.547668428766254 81.17228851127878
lradius 17.90900232984417
lwrist -1.7091544566555408
lhand -24.90155617019481 23.99136090224729
lfingers 7.12502
lthumb 1.6067249873448761 53.96549056840365
rclavicle -1.9083763867148553e-15 9.477623833769457e-16
rhumerus -22.891262555272576 -11.531576976274629 -82.08778984140196
rradius 29.857221856951266
rwrist 1.0757950143713844
rhand -18.69687713224476 23.65569340388757
rfingers 7.12502
rthumb 7.597650004951284 -6.1900243338336205
55
root 0.6027117880201325 17.805155715854973 12.034125897061061 -2.3825550951701078 -5.018236220936069 -3.59234697268181
lfemur -23.117684919111145 -3.4993479819937647 -18.133684335543254
ltibia 22.791541930097875
lfoot -2.5608602610632807 -1.0762365134443823
ltoes -0.3998345088227566
rfemur 10.772138611338864 4.081909557148715 27.251024100264345
rtibia 50.07425407698469
rfoot 7.748731217367727 3.3670606441559983
rtoes 2.6597743028414524
lowerback 8.910404197488093 3.3847264613939623 4.679868579951879
upperback 0.09713989292133673 4.997480896588048 0.654982544831907
thorax -4.755378915873376 2.3798427053817965 -2.270918839973959
lowerneck -16.687718623043178 -3.368870371868279 -1.4148241305692286
upperneck 20.988671499007875 -4.516799999867801 1.365081057153847
head 9.448866602549383 -2.0908645878454477 0.0905295019652517
lclavicle -1.6795113625158519e-15 1.1585926459194723e-15
lhumerus -40.76477389531044 9.860012843405348 80.99623115220467
lradius 17.644980672967282
lwrist -1.1871644172349631
lhand -24.63633232115107 24.27662126219085
lfingers 7.12502
lthumb 1.8628940522654898 54.248419089416984
rclavicle -1.6795113625158519e-15 1.1585926459194723e-15
rhumerus -23.833797012694205 -13.010739534702259 -81.72858239053201
rradius 29.21955841082815
rwrist 2.1428932283467823
rhand -18.43360709524165 23.074991453001807
rfingers 7.12502
rthumb 7.851741795673634 -6.760918192666046
56
root 0.688693645181622 17.873336672084314 11.250237934668002 -3.0152019991637693 -5.363961006313926 -2.0834640233770623
lfemur -20.428739922027383 -3.1173372984439585 -20.966328186614984
ltibia 24.966327006916746
lfoot -4.665990801703305 -0.694765397882193
ltoes 0.9456900589620427
rfemur 4.398103181163023 2.9204761661927647 24.40210635115605
rtibia 60.757092004908415
rfoot 13.913754375935376 2.043506963164262
rtoes 8.009246002146245
lowerback 9.27123633014793 3.2471592243084753 3.1201664675971585
upperback 0.1800538954566867 4.642386585792732 0.30533208073860774
thorax -4.90857940820344 2.2338559302420324 -1.7990874306566083
lowerneck -16.634780401446175 -3.2659221403242737 -1.4590597184063292
upperneck 21.10025180310665 -4.367714324415689 1.2891485935543916
head 9.478764969991158 -2.0285757873553765 0.09735852104274614
lclavicle -1.926308317425602e-15 9.313511851146523e-16
lhumerus -40.01703422340674 9.180960623581969 81.16584087304858
lradius 18.001059874027334
lwrist 0.04460606088038421
lhand -24.90730129538359 24.182877123134652
lfingers 7.12502
lthumb 1.601195284079332 54.151405489407914
rclavicle -1.926308317425602e-15 9.313511851146523e-16
rhumerus -24.730565807424203 -14.394910680540391 -81.52453736571644
rradius 28.332695043396765
rwrist 3.2784804844515136
rhand -18.09568039488152 22.421762234314027
rfingers 7.12502
rthumb 8.177879145880564 -7.399297864249248
57
root 0.7477791782802042 17.938696936256694 11.018881064321404 -3.521227490307399 -5.531809270763144 -0.6998671556447718
lfemur -16.971873292522623 -2.9729059806229072 -23.187621706108647
ltibia 26.094140075012525
lfoot -7.141387024569524 0.8115243227999995
ltoes 2.0284361073806374
rfemur -2.602986209057306 1.8525090171723377 22.252706216181416
rtibia 70.55962131584772
rfoot 15.097397305203284 -0.3388261173073648
rtoes 11.608303165337942
lowerback 9.670822123054746 3.0040505748092587 1.7744948693503593
upperback 0.3187837031150822 4.169188860020352 0.09442841718362449
thorax -5.022121747717728 2.0276345161761586 -1.2013696688820854
lowerneck -16.55679224767976 -3.1054860570914062 -1.4762746055465992
upperneck 21.20186706731103 -4.124075662079862 1.155665325872482
head 9.500761394915449 -1.9313126730132184 0.0999814908555971
lclavicle -1.7599739537657178e-15 1.0845750479925082e-15
lhumerus -38.700399178698675 8.083059003755286 81.63737872142231
lradius 18.858619043461335
lwrist 1.4945461098527226
lhand -25.525534136074377 23.875886767586785
lfingers 7.12502
lthumb 1.0040979136639963 53.84175873600526
rclavicle -1.7599739537657178e-15 1.0845750479925084e-15
rhumerus -25.34461060402245 -15.434843588846292 -81.30490813569726
rradius 27.451280662768177
rwrist 4.541206078052833
rhand -17.66807587502309 21.888492208932195
rfingers 7.12502
rthumb 8.590552459654603 -7.915371158866625
58
root 0.7715685413737104 17.978512935365792 9.784369993083356 -3.977577589443971 -5.5459966386228245 0.2874595463309908
lfemur -14.094971855599589 -3.1649804960905668 -25.346253211768836
ltibia 25.701446705810454
lfoot -9.96008532527073 2.225557604080729
ltoes 2.553881134250838
rfemur -10.479684336375275 0.6490063042750736 20.487307299584838
rtibia 77.40510947633166
rfoot 11.593157055560415 -2.7885013582493605
rtoes 12.462832643663655
lowerback 10.023937042806812 2.539836564590704 0.41858146887875847
upperback 0.4637826768021836 3.4035990083351177 -0.04272787271492606
thorax -5.126188920008984 1.6789168038933806 -0.6612081198356493
lowerneck -16.46351783837747 -2.9456290289248908 -1.5371170691803875
upperneck 21.269901682952565 -3.8750932565747274 0.9490281589390527
head 9.5020366900497 -1.8349548716490567 0.08423100747544905
lclavicle -2.3446064521525418e-15 5.462580810873697e-16
lhumerus -37.27537071454303 6.287459508466762 82.18022922339745
lradius 19.651281567967523
lwrist 2.511633367770504
lhand -26.30353136975659 23.13148796771922
lfingers 7.12502
lthumb 0.252696002425031 53.09694626980952
rclavicle -2.3446064521525418e-15 5.462580810873697e-16
rhumerus -26.01000735568492 -16.520534049365054 -81.23472629617565
rradius 26.568145650401323
rwrist 5.280610829730826
rhand -17.35214041325357 21.419312525361086
rfingers 7.12502
rthumb 8.89544914790924 -8.369319045274871
